<?xml version="1.0" encoding="UTF-8" standalone="no"?>
<!DOCTYPE svg PUBLIC "-//W3C//DTD SVG 1.1//EN" "http://www.w3.org/Graphics/SVG/1.1/DTD/svg11.dtd">
<svg width="100%" height="100%" viewBox="0 0 1000 1000" version="1.1" xmlns="http://www.w3.org/2000/svg" xmlns:xlink="http://www.w3.org/1999/xlink" xml:space="preserve" xmlns:serif="http://www.serif.com/" style="fill-rule:evenodd;clip-rule:evenodd;stroke-linejoin:round;stroke-miterlimit:2;">
    <g transform="matrix(0.874126,0,0,0.930233,2.622378,7.44186)">
        <rect x="-3" y="-8" width="1144" height="1075" style="fill:rgb(143,188,187);"/>
    </g>
    <g transform="matrix(2.974725,0,0,2.974725,-676.820487,-2128.570308)">
        <g transform="matrix(3.921931,0,0,3.921931,270.104684,758.132929)">
            <path d="M42.2,30C42.351,29.259 42.373,34.75 42.2,34L24,34C20.238,33.998 16.631,32.479 14,29.79L14,42.2C18.639,43.147 22.001,47.265 22,52C21.45,65.26 2.55,65.27 2,52C1.999,47.265 5.361,43.147 10,42.2L10,21.8C5.361,20.853 1.999,16.735 2,12C2.55,-1.26 21.45,-1.27 22,12C21.998,16.672 18.722,20.751 14.16,21.76C15.009,26.508 19.177,29.998 24,30L42.2,30ZM18,52C17.75,44.07 6.25,44.07 6,52C6.25,59.93 17.75,59.93 18,52ZM6,12C6.25,19.93 17.75,19.93 18,12C17.75,4.07 6.25,4.07 6,12Z" style="fill:white;"/>
        </g>
        <g transform="matrix(3.938836,0,0,3.938836,269.394196,757.42389)">
            <path d="M51.971,22.057C57.459,22.057 61.914,26.512 61.914,32C61.914,37.488 57.459,41.943 51.971,41.943C46.484,41.943 42.029,37.488 42.029,32C42.029,26.512 46.484,22.057 51.971,22.057ZM52,38C59.93,37.75 59.93,26.25 52,26C44.07,26.25 44.07,37.75 52,38Z" style="fill:rgb(94,129,172);"/>
        </g>
    </g>
</svg>
