<?xml version="1.0" encoding="UTF-8" standalone="no"?>
<!DOCTYPE svg PUBLIC "-//W3C//DTD SVG 1.1//EN" "http://www.w3.org/Graphics/SVG/1.1/DTD/svg11.dtd">
<svg width="100%" height="100%" viewBox="0 0 1000 1000" version="1.1" xmlns="http://www.w3.org/2000/svg" xmlns:xlink="http://www.w3.org/1999/xlink" xml:space="preserve" xmlns:serif="http://www.serif.com/" style="fill-rule:evenodd;clip-rule:evenodd;stroke-linejoin:round;stroke-miterlimit:2;">
    <g transform="matrix(11.666667,0,0,11.666667,126.666669,126.666668)">
        <path d="M52,22C47.265,21.999 43.147,25.361 42.2,30L24,30C19.177,29.998 15.009,26.508 14.16,21.76C18.722,20.751 21.998,16.672 22,12C21.45,-1.27 2.55,-1.26 2,12C1.999,16.735 5.361,20.853 10,21.8L10,42.2C5.361,43.147 1.999,47.265 2,52C2.55,65.27 21.45,65.26 22,52C22.001,47.265 18.639,43.147 14,42.2L14,29.79C16.631,32.479 20.238,33.998 24,34L42.2,34C44.89,45.66 61.66,44.07 62,32C62,26.514 57.486,22 52,22ZM6,12C6.25,4.07 17.75,4.07 18,12C17.75,19.93 6.25,19.93 6,12ZM18,52C17.75,59.93 6.25,59.93 6,52C6.25,44.07 17.75,44.07 18,52ZM52,38C44.07,37.75 44.07,26.25 52,26C59.93,26.25 59.93,37.75 52,38Z" style="fill:white;fill-rule:nonzero;"/>
    </g>
</svg>
